<?xml version="1.0" standalone="no"?>
<!DOCTYPE svg PUBLIC "-//W3C//DTD SVG 20010904//EN"
 "http://www.w3.org/TR/2001/REC-SVG-20010904/DTD/svg10.dtd">
<svg version="1.0" xmlns="http://www.w3.org/2000/svg"
 width="260.000000pt" height="260.000000pt" viewBox="0 0 260.000000 260.000000"
 preserveAspectRatio="xMidYMid meet">
<metadata>
Created by potrace 1.14, written by Peter Selinger 2001-2017
</metadata>
<g transform="translate(0.000000,260.000000) scale(0.100000,-0.100000)"
fill="#000000" stroke="none">
<path d="M1336 2247 c3 -10 9 -15 12 -12 3 3 0 11 -7 18 -10 9 -11 8 -5 -6z"/>
<path d="M1267 2229 c-10 -6 -15 -14 -12 -19 3 -5 1 -11 -4 -14 -5 -4 -13 -1
-17 5 -5 8 -3 9 6 4 9 -5 11 -4 6 3 -9 15 -11 15 -27 -5 -12 -14 -12 -16 0 -8
10 5 12 4 7 -3 -4 -7 -14 -12 -22 -12 -12 0 -20 -26 -15 -53 1 -5 -3 -6 -9 -2
-5 3 -10 1 -10 -5 0 -6 -5 -8 -12 -4 -7 4 -8 3 -4 -5 4 -6 12 -9 17 -6 5 4 9
1 9 -4 0 -10 -14 -15 -32 -12 -5 0 -8 -3 -8 -9 0 -5 5 -10 11 -10 6 0 9 -14 6
-35 -3 -19 -1 -32 4 -29 5 3 9 0 9 -6 0 -6 5 -8 10 -5 6 3 10 -3 10 -15 0 -12
5 -18 10 -15 13 8 13 -8 0 -21 -7 -7 -6 -11 4 -11 8 0 13 4 10 9 -3 4 0 8 5 8
6 0 11 -6 11 -14 0 -9 7 -13 20 -11 12 2 20 -2 20 -10 0 -8 5 -17 12 -21 6 -4
9 -3 6 2 -4 5 5 10 18 10 16 1 24 -4 25 -15 0 -10 2 -11 6 -3 2 6 9 9 14 6 6
-3 21 6 35 21 17 18 24 22 24 11 0 -9 -4 -16 -10 -16 -5 0 -10 -6 -10 -12 1
-8 8 -4 18 8 10 11 24 18 31 16 8 -3 11 0 7 7 -4 6 -2 11 3 11 6 0 11 6 11 14
0 8 7 17 16 20 8 3 13 10 10 15 -4 5 1 17 10 25 8 9 11 16 5 16 -6 0 -8 7 -5
15 4 8 10 13 14 10 5 -3 12 0 16 6 5 8 3 9 -6 4 -10 -6 -12 -4 -6 10 5 15 4
16 -8 6 -11 -9 -16 -9 -22 0 -4 7 -3 9 3 6 12 -8 22 12 16 31 -3 6 -10 9 -15
6 -6 -4 -8 -2 -4 4 3 6 2 13 -4 17 -5 3 -10 15 -10 27 0 18 -2 19 -17 7 -9 -8
-14 -9 -10 -3 4 7 0 15 -9 18 -9 3 -14 12 -11 19 3 8 -1 14 -9 14 -7 0 -11 -5
-7 -10 3 -5 -6 -2 -20 8 -17 10 -27 13 -32 6 -4 -8 -12 -8 -27 0 -16 8 -19 8
-13 -1 6 -9 3 -9 -12 -2 -12 7 -25 7 -36 1z m-89 -174 c-3 -3 -9 2 -12 12 -6
14 -5 15 5 6 7 -7 10 -15 7 -18z m12 -29 c0 -11 -19 -15 -25 -6 -3 5 1 10 9
10 9 0 16 -2 16 -4z"/>
<path d="M1364 1788 c3 -10 1 -18 -4 -18 -6 0 -10 5 -10 12 0 9 -3 9 -12 0
-13 -13 -32 -16 -24 -4 2 4 -8 8 -24 7 -15 0 -26 -3 -23 -7 2 -5 -1 -8 -6 -8
-6 0 -11 5 -11 10 0 6 -5 10 -11 10 -5 0 -8 -4 -5 -8 3 -5 -1 -9 -9 -9 -8 0
-12 4 -9 9 8 13 -29 6 -38 -7 -5 -6 -8 -6 -8 2 0 13 -25 12 -37 -2 -4 -4 -2
-5 6 0 9 5 12 3 9 -6 -3 -8 -11 -13 -17 -11 -6 1 -11 -5 -11 -13 0 -8 -7 -15
-16 -15 -8 0 -12 -5 -9 -10 4 -6 11 -7 17 -4 7 4 8 2 4 -5 -4 -6 -12 -9 -17
-6 -5 4 -9 -5 -9 -19 0 -14 -5 -26 -12 -26 -6 0 -8 -3 -5 -6 4 -4 13 -2 21 5
11 10 14 7 12 -13 -1 -18 -4 -22 -14 -14 -9 8 -11 7 -6 -6 3 -9 9 -16 13 -16
4 0 8 -7 8 -15 0 -11 -4 -12 -13 -4 -9 7 -14 6 -20 -3 -4 -7 -4 -10 0 -6 5 4
14 1 21 -5 10 -9 10 -15 1 -26 -6 -9 -6 -12 0 -9 6 4 10 -3 10 -17 0 -13 -4
-21 -8 -19 -4 3 -8 0 -8 -5 0 -6 5 -11 11 -11 5 0 7 -5 4 -10 -4 -6 -12 -7
-18 -4 -9 5 -9 4 0 -6 6 -7 9 -19 6 -28 -4 -9 -2 -13 4 -9 5 3 10 -1 10 -9 0
-8 -6 -13 -12 -10 -6 2 -12 -2 -12 -10 0 -7 5 -10 10 -7 7 4 8 -1 3 -13 -9
-22 -9 -22 -7 -52 0 -13 5 -21 9 -18 5 3 9 -1 9 -9 0 -8 -4 -12 -9 -9 -4 3 -8
-2 -8 -10 0 -9 5 -16 10 -16 6 0 10 -5 10 -11 0 -5 -4 -8 -9 -4 -5 3 -3 -8 5
-25 9 -16 21 -33 27 -37 9 -5 9 -3 2 8 -5 8 -3 7 6 -3 9 -9 19 -14 23 -11 3 4
6 0 6 -8 0 -12 2 -11 10 1 8 11 10 5 8 -22 -1 -21 1 -40 4 -43 3 -4 2 -20 -2
-36 -6 -18 -5 -31 2 -35 7 -5 8 -2 3 6 -6 9 -4 11 5 5 11 -7 10 -10 -1 -19
-15 -12 -18 -113 -5 -135 4 -6 3 -11 -2 -11 -10 0 -9 -30 2 -48 4 -6 3 -12 -2
-12 -13 0 -8 -36 7 -54 12 -14 12 -16 0 -11 -12 5 -14 -5 -9 -55 5 -51 3 -60
-9 -55 -10 4 -9 -1 5 -16 10 -12 13 -19 5 -14 -11 6 -13 4 -7 -10 6 -16 4 -16
-11 -4 -10 7 -15 9 -11 5 4 -5 2 -16 -5 -24 -10 -13 -9 -14 2 -7 10 6 12 4 7
-4 -5 -7 -14 -10 -22 -7 -8 3 -13 2 -13 -2 3 -19 -2 -25 -11 -12 -8 13 -10 13
-10 -2 0 -12 -5 -15 -17 -11 -12 5 -14 3 -8 -8 7 -11 5 -11 -10 1 -15 12 -17
12 -10 1 6 -11 4 -13 -9 -8 -11 4 -19 1 -23 -9 -5 -14 -8 -13 -18 6 -11 20
-13 6 -14 -85 0 -72 3 -113 12 -124 10 -12 9 -13 -1 -7 -10 6 -12 1 -9 -21 3
-25 8 -28 40 -29 21 -1 37 4 37 10 0 8 3 8 8 0 8 -12 93 -14 86 -2 -3 5 -10 6
-15 3 -5 -4 -9 -1 -9 5 0 7 6 10 13 7 8 -3 20 -1 28 3 8 5 19 4 28 -3 12 -10
14 -9 9 3 -4 11 3 16 25 17 17 1 33 7 37 13 4 6 16 12 28 13 15 1 18 5 11 13
-12 14 -1 23 24 19 9 -2 15 1 11 6 -3 5 0 9 5 9 6 0 11 6 11 13 0 6 16 27 35
46 36 34 43 51 24 51 -5 0 -7 5 -4 10 4 6 12 7 18 4 7 -4 9 -4 5 1 -4 4 -3 14
3 22 9 10 8 17 -1 28 -7 8 -10 16 -6 16 3 1 10 2 15 3 5 0 13 5 18 10 4 5 3 7
-2 3 -15 -8 -39 9 -31 22 4 6 15 11 24 12 12 0 10 3 -7 10 -18 7 -21 12 -12
23 6 7 8 16 4 20 -4 4 0 4 10 0 9 -3 17 -2 17 4 0 5 -10 12 -22 16 -18 5 -20
8 -9 15 8 5 10 14 6 21 -6 9 -4 11 4 6 7 -5 10 -15 7 -23 -4 -8 -1 -11 5 -8 6
4 8 14 5 22 -4 9 -1 22 5 29 8 10 8 14 0 14 -6 0 -11 -4 -11 -10 0 -5 -5 -10
-10 -10 -7 0 -7 6 -1 19 6 10 8 21 5 24 -8 8 -12 57 -5 57 4 0 13 -6 21 -13
12 -10 12 -9 3 3 -6 8 -11 19 -11 23 0 5 -4 12 -8 15 -4 4 -4 1 1 -7 5 -9 4
-12 -3 -7 -18 11 -14 26 5 26 15 0 14 2 -3 16 -10 8 -13 13 -6 9 6 -3 12 -3
13 2 0 4 2 16 4 25 2 10 -1 21 -7 24 -6 4 -5 10 3 15 11 7 11 9 -2 9 -9 0 -16
6 -16 14 0 9 7 12 16 9 13 -5 14 -3 4 8 -18 19 -16 39 5 40 14 0 14 2 -3 8
-11 5 -23 7 -27 4 -5 -2 -8 0 -8 5 0 6 7 13 16 16 10 4 13 2 8 -7 -4 -6 -3 -9
1 -4 13 12 14 48 1 38 -8 -6 -11 0 -11 21 0 33 25 53 56 45 11 -3 16 -1 13 5
-3 5 4 12 15 15 18 5 19 8 9 21 -11 13 -10 14 9 3 22 -11 22 -11 11 14 -6 14
-16 25 -22 25 -6 0 -3 5 7 11 9 5 17 15 17 20 0 6 -4 8 -8 5 -5 -3 -9 1 -9 9
0 8 5 15 10 15 5 0 4 6 -2 14 -8 10 -8 16 1 24 11 8 13 -1 14 -43 0 -29 -4
-51 -8 -49 -13 8 -9 -3 5 -14 9 -8 12 35 12 213 0 123 -3 221 -8 218 -4 -2 -5
-9 -2 -14 4 -5 2 -9 -3 -9 -6 0 -13 7 -16 16 -3 8 -2 13 3 10 5 -3 12 1 15 10
9 24 7 31 -4 14 -8 -13 -10 -12 -10 3 0 12 -5 16 -12 11 -10 -6 -10 -4 0 7 15
16 16 29 1 29 -5 0 -7 -4 -4 -10 3 -5 -1 -10 -9 -10 -10 0 -13 7 -11 21 4 17
2 19 -10 9 -11 -9 -15 -9 -15 -1 0 6 -5 11 -11 11 -5 0 -7 -6 -3 -12 4 -7 -3
-4 -16 7 -13 11 -20 14 -16 7 6 -10 3 -13 -10 -11 -11 2 -25 0 -31 -4 -8 -5
-13 -4 -13 2 0 6 -5 11 -11 11 -5 0 -7 -4 -4 -10 11 -18 -14 -11 -25 8 -11 16
-11 16 -6 0z m216 -148 c-6 -11 -12 -20 -14 -20 -2 0 -2 9 1 20 3 11 9 20 15
20 5 0 4 -9 -2 -20z m5 -51 c-3 -32 -22 -62 -22 -34 0 8 5 15 10 15 5 0 5 6
-2 13 -8 10 -7 17 1 25 16 16 16 16 13 -19z m0 -80 c-3 -32 -22 -62 -22 -34 0
8 5 15 10 15 5 0 5 6 -2 13 -8 10 -7 17 1 25 16 16 16 16 13 -19z m0 -80 c-3
-32 -22 -62 -22 -34 0 8 5 15 10 15 5 0 5 6 -2 13 -8 10 -7 17 1 25 16 16 16
16 13 -19z m-472 -65 c-7 -3 -9 -13 -6 -22 4 -14 3 -14 -5 -2 -12 16 -7 30 11
29 9 0 9 -2 0 -5z m364 -418 c0 -8 -6 -12 -15 -9 -11 5 -11 7 0 14 7 5 13 9
14 9 0 0 1 -6 1 -14z m-17 -406 c0 -5 -5 -10 -11 -10 -5 0 -7 5 -4 10 3 6 8
10 11 10 2 0 4 -4 4 -10z m-25 -70 c-3 -5 -12 -10 -18 -10 -7 0 -6 4 3 10 19
12 23 12 15 0z m-385 -195 c0 -2 -9 -3 -19 -2 -11 0 -18 5 -15 9 4 6 34 0 34
-7z m85 5 c3 -6 -1 -7 -9 -4 -18 7 -21 14 -7 14 6 0 13 -4 16 -10z"/>
<path d="M1483 1173 c-15 -5 -17 -23 -4 -23 5 0 11 7 15 15 3 8 4 15 3 14 -1
0 -8 -3 -14 -6z"/>
<path d="M1465 650 c-3 -5 -2 -10 4 -10 5 0 13 5 16 10 3 6 2 10 -4 10 -5 0
-13 -4 -16 -10z"/>
<path d="M1400 410 c-8 -5 -12 -12 -9 -15 4 -3 12 1 19 10 14 17 11 19 -10 5z"/>
<path d="M1195 280 c-3 -5 -1 -10 4 -10 6 0 11 5 11 10 0 6 -2 10 -4 10 -3 0
-8 -4 -11 -10z"/>
</g>
</svg>
