<svg width="1728" height="750" viewBox="0 0 1728 750" fill="none" xmlns="http://www.w3.org/2000/svg">
<path d="M-41.5 699.5C-41.5 653.445 23.5364 576.374 49.1434 535.234C80.5371 484.798 143.239 465.993 200.61 452.171C457.5 456.5 496.207 422.09 566.5 331.5C584.919 307.763 603.5 232.5 552 183.5C514.5 164.5 451 147 373 179C336.528 197.616 322.407 227.488 321.444 263.821C320.158 312.34 386.052 403.701 434.8 427.614C516.895 467.883 606.345 418.455 691.586 434.114C764.892 447.58 782.525 543.456 794.415 599.518C796.899 611.232 804.938 621.121 808.777 632.382C813.572 646.451 811.488 636.5 817 628.5C825.426 616.271 822.663 611.775 827.351 605.296C840.244 587.478 841.616 596.194 864.308 551.847C887 507.5 889.457 482.787 930.5 466C992.953 440.456 969.335 454.911 1033 432.128C1084.3 413.769 1275.87 373.896 1308.56 331.55C1359.23 265.914 1378.36 180.916 1388.03 101.501C1391.77 70.7931 1376.27 51.6025 1345.13 40.8295C1298.61 24.7307 1285.08 62.3216 1280.41 98.9735C1272.94 157.676 1264.61 242.831 1297.26 296.519C1325.71 343.296 1390.81 378.414 1441.64 399.806C1477.81 415.024 1517.74 418.585 1554.24 432.128C1595.78 447.538 1625.34 482.51 1639.64 521.33C1661.69 581.173 1705.5 651 1734.5 713" stroke="#04192F" stroke-opacity="0.03" stroke-width="74" stroke-linecap="round"/>
</svg>
