<svg width="246" height="74" viewBox="0 0 246 74" fill="none" xmlns="http://www.w3.org/2000/svg">
<path d="M7.40653 39.0056C7.40653 46.4533 20.1861 55.035 39.7499 60.1837C65.5101 66.9631 94.1885 69.9582 128.612 69.9582C149.402 69.9582 157.694 69.8732 175.004 66.7905C190.164 64.0907 202.307 60.8707 214.861 57.2875C232.344 52.2976 227.929 44.0936 227.929 37.7838C227.929 31.7219 213.242 24.577 202.937 19.5019C189.891 13.077 160.532 5.60948 132.533 5.60949C104.689 5.60949 82.7854 7.23442 63.2723 12.9404C46.5526 17.8295 28.1568 20.8657 17.6976 27.2401C9.77203 32.0704 -1.97258 38.7661 1.68927 44.3454C6.53923 51.735 42.2532 54.8378 60.332 59.3692C69.0821 61.5623 88.7767 63.4676 99.8628 64.5732C114.704 66.0533 130.764 65.8855 146.254 65.8855C175.483 65.8855 202.043 62.3917 212.901 54.1199C221.87 47.2876 219.109 39.1705 219.109 32.0368C219.109 23.1626 201.81 9.50236 167.49 7.05755C136.982 4.88434 113.564 5.4928 85.1613 9.50118C62.0141 12.7679 27.2722 19.8076 19.1678 27.1043C18.0164 28.141 15.6066 28.8936 13.2871 29.7289C8.11302 31.5923 10.3468 34.8176 10.3468 37.0145C10.3468 42.0433 15.2889 45.5737 19.1678 50.4092C24.4415 56.9835 49.0347 62.9345 70.4598 65.4782C97.0517 68.6353 132.761 70.2438 161.773 69.0531C200.39 67.4683 215.687 60.5799 229.236 51.4048C241.105 43.3675 251.749 29.551 239.691 20.9047C232.709 15.8988 219.634 10.7327 205.877 6.9218C193.589 3.51779 158.431 4.51805 143.314 4.8402C125.11 5.22813 103.158 7.35826 86.7948 9.50118C71.6633 11.4828 53.5777 12.3678 41.3834 15.746C25.8591 20.0466 8.19568 27.145 7.40653 33.4849C5.75096 46.7854 26.3867 59.6994 70.4598 65.8855C114.587 72.0792 155.062 78.1845 195.423 65.8855C213.07 60.5078 223.193 55.7194 227.276 48.4181C230.897 41.9444 240.761 35.9121 235.28 29.2312C226.221 18.1885 190.556 6.57703 151.808 2.53233C107.294 -2.11431 65.9604 4.26634 43.997 15.4745C26.8434 24.2282 9.49276 32.8071 20.6379 43.3046C26.4405 48.77 52.3836 58.5434 72.0933 60.591C84.2812 61.8571 124.48 63.5912 133.84 60.9982" stroke="#6500FF" stroke-linecap="round"/>
</svg>
