<svg width="24" height="22" viewBox="0 0 24 22" fill="none" xmlns="http://www.w3.org/2000/svg">
<path d="M5.03673 2.44553C5.03639 3.0938 4.77075 3.71539 4.29822 4.17356C3.8257 4.63173 3.18502 4.88894 2.5171 4.88862C1.84919 4.88829 1.20877 4.63046 0.736721 4.17183C0.264673 3.71321 -0.00033364 3.09136 3.15251e-07 2.44309C0.000334271 1.79482 0.265981 1.17323 0.738502 0.715057C1.21102 0.25689 1.85171 -0.00032383 2.51962 3.0598e-07C3.18753 0.000324441 3.82796 0.25816 4.30001 0.716786C4.77205 1.17541 5.03706 1.79726 5.03673 2.44553ZM5.11228 6.69863H0.0755511V22H5.11228V6.69863ZM13.0703 6.69863H8.05876V22H13.0199V13.9704C13.0199 9.49736 19.0262 9.08183 19.0262 13.9704V22H24V12.3083C24 4.76762 15.1102 5.04872 13.0199 8.75185L13.0703 6.69863Z" fill="#41393A"/>
</svg>
